<?xml version="1.0" encoding="UTF-8" standalone="no"?>
<svg width="235px" height="159px" viewBox="0 0 235 159" version="1.1" xmlns="http://www.w3.org/2000/svg" xmlns:xlink="http://www.w3.org/1999/xlink" xmlns:sketch="http://www.bohemiancoding.com/sketch/ns">
    <title>Logo</title>
    <description>Created with Sketch (http://www.bohemiancoding.com/sketch)</description>
    <defs></defs>
    <g id="Page-1" stroke="none" stroke-width="1" fill="none" fill-rule="evenodd" sketch:type="MSPage">
        <g id="Coderetreat---Logo" sketch:type="MSLayerGroup">
            <g id="Group" sketch:type="MSShapeGroup">
                <path d="M118.237,45.796 L59.553,45.796 L59.553,88.324 L118.237,88.324 L118.237,104.585 L58.823,104.585 C54.513,104.585 50.865,103.091 47.878,100.103 C44.89,97.116 43.396,93.468 43.396,89.158 L43.396,44.963 C43.396,40.655 44.89,37.007 47.878,34.018 C50.865,31.031 54.513,29.536 58.823,29.536 L118.237,29.536 L118.237,45.796 L118.237,45.796 Z" id="Shape" fill="#CD0000"></path>
                <path d="M132.621,80.455 L132.621,104.533 L116.464,104.533 L116.464,29.587 L175.982,29.587 C180.22,29.587 183.869,31.099 186.927,34.122 C189.984,37.144 191.513,40.776 191.513,45.014 L191.513,64.401 C191.513,68.641 189.984,72.271 186.927,75.294 C183.868,78.317 180.22,79.828 175.982,79.828 L175.253,79.828 L191.514,99.007 L191.514,104.531 L174.836,104.531 L154.094,79.827 L132.621,79.931 C132.621,80.278 132.636,80.375 132.621,80.792 L132.621,80.455 Z M132.621,45.745 L132.621,63.569 L175.148,63.569 L175.148,45.745 L132.621,45.745 L132.621,45.745 Z" id="Shape" fill="#CD0000"></path>
                <path d="M24.396,79.818 L24.396,111.314 C24.396,113.291 25.105,114.99 26.527,116.409 C27.945,117.83 29.645,118.54 31.622,118.54 L36.995,118.54 L36.995,133.732 L31.622,133.732 C25.444,133.732 20.164,131.541 15.782,127.155 C11.396,122.772 9.204,117.492 9.204,111.315 L9.204,81.116 C8.463,80.624 7.042,79.726 4.943,78.429 C2.841,77.132 1.359,76.238 0.496,75.743 L0.496,57.957 L9.204,53.325 L9.204,22.94 C9.204,16.641 11.395,11.3 15.782,6.914 C20.164,2.531 25.445,0.337 31.622,0.337 L36.995,0.337 L36.995,15.714 L31.622,15.714 C29.645,15.714 27.946,16.426 26.527,17.844 C25.106,19.266 24.396,20.965 24.396,22.939 L24.396,54.62 L8.833,67.033 L24.396,79.818 L24.396,79.818 Z" id="Shape" fill="#2F2F2F"></path>
                <path d="M210.514,54.25 L210.514,22.754 C210.514,20.777 209.805,19.078 208.384,17.659 C206.965,16.238 205.266,15.528 203.289,15.528 L197.916,15.528 L197.916,0.337 L203.289,0.337 C209.466,0.337 214.746,2.528 219.129,6.914 C223.515,11.297 225.707,16.577 225.707,22.754 L225.707,52.953 C226.447,53.445 227.868,54.343 229.967,55.64 C232.07,56.937 233.552,57.831 234.414,58.326 L234.414,76.112 L225.707,80.744 L225.707,111.128 C225.707,117.427 223.515,122.768 219.129,127.154 C214.746,131.536 209.466,133.732 203.289,133.732 L197.916,133.732 L197.916,118.354 L203.289,118.354 C205.266,118.354 206.965,117.642 208.384,116.224 C209.805,114.803 210.514,113.103 210.514,111.129 L210.514,79.448 L226.077,67.035 L210.514,54.25 L210.514,54.25 Z" id="Shape" fill="#2F2F2F"></path>
                <g transform="translate(34.000000, 144.000000)" id="Shape" fill="#CD0000">
                    <path d="M14.309,3.178 L3.2,3.178 L3.2,11.229 L14.309,11.229 L14.309,14.307 L3.062,14.307 C2.246,14.307 1.556,14.024 0.99,13.458 C0.424,12.893 0.141,12.202 0.141,11.386 L0.141,3.02 C0.141,2.205 0.424,1.514 0.99,0.948 C1.555,0.383 2.246,0.099 3.062,0.099 L14.309,0.099 L14.309,3.178 L14.309,3.178 Z"></path>
                    <path d="M19.242,0.1 L27.608,0.1 C28.41,0.1 29.098,0.386 29.67,0.958 C30.242,1.53 30.528,2.218 30.528,3.02 L30.528,11.386 C30.528,12.189 30.242,12.876 29.67,13.448 C29.098,14.02 28.41,14.306 27.608,14.306 L19.242,14.306 C18.426,14.306 17.736,14.023 17.17,13.457 C16.604,12.892 16.321,12.201 16.321,11.385 L16.321,3.019 C16.321,2.204 16.604,1.513 17.17,0.947 C17.735,0.383 18.426,0.1 19.242,0.1 L19.242,0.1 Z M19.38,3.178 L19.38,11.229 L27.43,11.229 L27.43,3.178 L19.38,3.178 L19.38,3.178 Z"></path>
                    <path d="M32.738,0.1 L44.005,0.1 C44.82,0.1 45.515,0.386 46.087,0.958 C46.659,1.53 46.945,2.218 46.945,3.02 L46.945,11.386 C46.945,12.189 46.659,12.876 46.087,13.448 C45.515,14.02 44.82,14.306 44.005,14.306 L32.738,14.306 L32.738,0.1 L32.738,0.1 Z M35.796,3.178 L35.796,11.229 L43.847,11.229 L43.847,3.178 L35.796,3.178 L35.796,3.178 Z"></path>
                    <path d="M62.316,0.1 L62.316,3.178 L52.292,3.178 L52.292,5.664 L60.362,5.664 L60.362,8.742 L52.292,8.742 L52.292,11.228 L62.316,11.228 L62.316,14.306 L49.194,14.306 L49.194,0.1 L62.316,0.1 L62.316,0.1 Z"></path>
                    <path d="M78.456,3.041 L78.456,6.711 C78.456,7.514 78.166,8.201 77.588,8.773 C77.009,9.345 76.318,9.631 75.516,9.631 L75.378,9.631 L78.456,13.261 L78.456,14.307 L75.299,14.307 L71.373,9.631 L67.308,9.651 C67.348,9.651 67.367,9.691 67.367,9.77 C67.341,9.77 67.321,9.763 67.308,9.75 L67.308,14.308 L64.25,14.308 L64.25,0.12 L75.517,0.12 C76.319,0.12 77.01,0.406 77.589,0.978 C78.167,1.551 78.456,2.238 78.456,3.041 L78.456,3.041 Z M67.308,3.178 L67.308,6.553 L75.359,6.553 L75.359,3.178 L67.308,3.178 L67.308,3.178 Z"></path>
                    <path d="M93.708,0.1 L93.708,3.178 L83.685,3.178 L83.685,5.664 L91.755,5.664 L91.755,8.742 L83.685,8.742 L83.685,11.228 L93.708,11.228 L93.708,14.306 L80.587,14.306 L80.587,0.1 L93.708,0.1 L93.708,0.1 Z"></path>
                    <path d="M94.951,0.1 L109.158,0.1 L109.158,3.178 L103.594,3.178 L103.594,14.307 L100.516,14.307 L100.516,3.178 L94.952,3.178 L94.952,0.1 L94.951,0.1 Z"></path>
                    <path d="M124.825,3.041 L124.825,6.711 C124.825,7.514 124.536,8.201 123.957,8.773 C123.378,9.345 122.687,9.631 121.885,9.631 L121.747,9.631 L124.825,13.261 L124.825,14.307 L121.668,14.307 L117.741,9.631 L113.677,9.651 C113.717,9.651 113.737,9.691 113.737,9.77 C113.711,9.77 113.69,9.763 113.677,9.75 L113.677,14.308 L110.618,14.308 L110.618,0.12 L121.885,0.12 C122.688,0.12 123.378,0.406 123.957,0.978 C124.536,1.55 124.825,2.238 124.825,3.041 L124.825,3.041 Z M113.677,3.178 L113.677,6.553 L121.728,6.553 L121.728,3.178 L113.677,3.178 L113.677,3.178 Z"></path>
                    <path d="M140.077,0.1 L140.077,3.178 L130.054,3.178 L130.054,5.664 L138.124,5.664 L138.124,8.742 L130.054,8.742 L130.054,11.228 L140.077,11.228 L140.077,14.306 L126.956,14.306 L126.956,0.1 L140.077,0.1 L140.077,0.1 Z"></path>
                    <path d="M144.99,0.1 L153.337,0.1 C154.152,0.1 154.847,0.386 155.419,0.958 C155.991,1.53 156.277,2.218 156.277,3.02 L156.277,14.307 L153.178,14.307 L153.178,9.729 L145.128,9.729 L145.128,14.307 L142.069,14.307 L142.069,3.02 C142.069,2.205 142.351,1.514 142.918,0.948 C143.484,0.383 144.175,0.1 144.99,0.1 L144.99,0.1 Z M145.129,6.651 L153.179,6.651 L153.179,3.178 L145.129,3.178 L145.129,6.651 L145.129,6.651 Z"></path>
                    <path d="M157.816,0.1 L172.023,0.1 L172.023,3.178 L166.459,3.178 L166.459,14.307 L163.381,14.307 L163.381,3.178 L157.817,3.178 L157.817,0.1 L157.816,0.1 Z"></path>
                </g>
            </g>
        </g>
    </g>
</svg>